<?xml version="1.0" standalone="no"?>
<!DOCTYPE svg PUBLIC "-//W3C//DTD SVG 20010904//EN"
 "http://www.w3.org/TR/2001/REC-SVG-20010904/DTD/svg10.dtd">
<svg version="1.0" xmlns="http://www.w3.org/2000/svg"
 width="500.000000pt" height="500.000000pt" viewBox="0 0 500.000000 500.000000"
 preserveAspectRatio="xMidYMid meet">

<g transform="translate(0.000000,500.000000) scale(0.100000,-0.100000)"
fill="#000000" stroke="none">
<path d="M2245 4969 c-533 -73 -921 -234 -1300 -538 -419 -335 -718 -803 -852
-1331 -71 -281 -92 -630 -53 -900 146 -1040 866 -1852 1867 -2104 132 -33 258
-53 441 -67 297 -24 646 24 967 134 257 89 498 221 720 398 117 92 276 249
375 371 461 562 651 1278 529 1993 -30 174 -87 384 -134 490 -8 17 -25 58 -39
92 -49 119 -162 315 -255 443 -79 109 -133 173 -235 278 -469 484 -1116 755
-1789 751 -100 -1 -209 -5 -242 -10z m648 -734 c146 -38 239 -124 286 -263 41
-120 18 -254 -61 -358 -39 -52 -76 -82 -158 -125 -40 -21 -58 -24 -155 -24
-96 0 -116 3 -155 24 -117 62 -182 133 -220 245 -71 208 59 442 275 499 77 20
117 20 188 2z m1243 -427 c-9 -28 -43 -155 -62 -228 -8 -30 -24 -93 -37 -140
l-22 -85 -236 -3 -236 -2 -16 -58 c-21 -71 -48 -171 -77 -282 -12 -47 -25 -96
-29 -110 l-8 -25 -233 -3 c-129 -1 -237 1 -242 6 -5 5 -4 21 2 37 6 16 20 61
30 102 11 40 30 108 41 151 12 42 27 100 34 127 l11 50 239 5 239 5 33 125
c18 69 48 176 65 238 l31 112 240 0 239 0 -6 -22z m-1776 -466 c0 -5 -7 -33
-15 -63 -47 -170 -72 -261 -95 -356 l-11 -43 -235 0 -234 0 -11 -27 c-6 -16
-19 -59 -29 -98 -10 -38 -30 -115 -45 -170 -15 -55 -32 -119 -37 -142 l-10
-43 -240 0 -240 0 6 28 c3 15 17 68 32 117 14 50 29 106 34 125 4 19 18 74 31
123 l22 87 236 0 236 0 22 78 c12 42 32 113 44 157 12 44 27 100 34 125 8 25
17 60 20 78 l7 32 239 0 c131 0 239 -4 239 -8z m590 6 c0 -3 -55 -208 -101
-380 l-23 -88 -238 0 c-131 0 -238 3 -238 8 0 4 9 41 21 82 11 41 36 134 55
205 18 72 36 140 40 153 l6 22 239 0 c132 0 239 -1 239 -2z m-150 -587 c0 -5
-10 -46 -23 -92 -13 -46 -34 -122 -46 -169 -13 -47 -30 -112 -40 -145 l-17
-60 -237 -3 c-130 -1 -237 1 -237 5 1 11 24 101 55 218 15 55 31 116 35 135 4
19 13 54 20 78 l13 42 239 0 c132 0 238 -4 238 -9z m-750 -638 c-10 -32 -27
-92 -38 -133 -11 -41 -29 -109 -40 -150 -11 -41 -23 -87 -26 -102 l-6 -28
-238 0 -238 0 -58 -222 c-33 -123 -63 -231 -68 -240 -8 -16 -30 -18 -238 -18
-126 0 -231 4 -234 8 -3 5 1 31 9 58 7 27 30 110 50 184 20 74 43 159 51 188
l15 52 233 0 234 0 15 48 c8 26 24 85 37 132 12 47 30 114 40 150 10 36 21 80
25 98 l7 32 243 0 244 0 -19 -57z m1190 50 c0 -4 -9 -36 -20 -72 -29 -100 -87
-312 -95 -348 l-7 -33 232 0 232 0 -5 -32 c-3 -18 -24 -100 -46 -183 -23 -82
-46 -172 -53 -200 -6 -27 -16 -56 -21 -62 -11 -16 -462 -19 -471 -4 -4 5 -1
22 5 38 6 15 14 46 19 68 5 22 27 108 49 190 22 83 41 156 41 163 0 9 -53 12
-230 12 -168 0 -230 3 -230 12 0 6 6 34 14 62 8 28 22 78 30 111 14 53 35 130
67 248 l10 37 239 0 c132 0 240 -3 240 -7z"/>
</g>
</svg>
